<svg width="116" height="117" viewBox="0 0 116 117" fill="none" xmlns="http://www.w3.org/2000/svg">
<path d="M116 59C116 91.0325 90.0325 117 58 117C25.9675 117 0 91.0325 0 59C0 26.9675 25.9675 1 58 1C90.0325 1 116 26.9675 116 59ZM10.44 59C10.44 85.2667 31.7333 106.56 58 106.56C84.2667 106.56 105.56 85.2667 105.56 59C105.56 32.7333 84.2667 11.44 58 11.44C31.7333 11.44 10.44 32.7333 10.44 59Z" fill="#1F1F1F"/>
<path d="M57.4735 5.61888C57.456 2.81056 59.7229 0.495975 62.5214 0.730913C70.7608 1.42262 78.77 3.91661 85.9725 8.06082C93.175 12.205 99.3561 17.876 104.095 24.6517C105.704 26.9531 104.843 30.0761 102.406 31.4723C99.9691 32.8684 96.8836 32.0046 95.2289 29.7355C91.417 24.5081 86.5406 20.1211 80.9005 16.8758C75.2603 13.6305 69.0169 11.6193 62.5818 10.9508C59.7885 10.6607 57.4911 8.42719 57.4735 5.61888Z" fill="#30B94D"/>
</svg>
