<?xml version="1.0" encoding="utf-8"?>
<svg width="189" height="189" viewBox="0 0 189 189" fill="none" xmlns="http://www.w3.org/2000/svg">
  <defs/>
  <path d="M 180.202 95.097 C 180.202 141.489 142.594 179.097 96.202 179.097 C 49.811 179.097 12.202 141.489 12.202 95.097 C 12.202 48.706 49.811 11.097 96.202 11.097 C 142.594 11.097 180.202 48.706 180.202 95.097 Z M 27.322 95.097 C 27.322 133.139 58.161 163.977 96.202 163.977 C 134.244 163.977 165.082 133.139 165.082 95.097 C 165.082 57.056 134.244 26.217 96.202 26.217 C 58.161 26.217 27.322 57.056 27.322 95.097 Z" style="paint-order: stroke markers; fill: rgb(31, 31, 31);"/>
  <path d="M95.3071 18.6592C95.3456 14.4994 98.754 11.1216 102.894 11.532C115.037 12.7356 126.798 16.6026 137.332 22.8956C147.882 29.1983 156.886 37.7466 163.73 47.9041C166.045 51.3389 164.705 55.9224 161.085 57.9343C157.445 59.9572 152.887 58.6074 150.49 55.2023C144.983 47.3806 137.888 40.7802 129.64 35.8533C121.397 30.9289 112.238 27.8161 102.764 26.6841C98.6275 26.1898 95.2685 22.8254 95.3071 18.6592Z" fill="#30B94D"/>
</svg>