<svg width="116" height="117" viewBox="0 0 116 117" fill="none" xmlns="http://www.w3.org/2000/svg">
<path d="M116 59C116 91.0325 90.0325 117 58 117C25.9675 117 0 91.0325 0 59C0 26.9675 25.9675 1 58 1C90.0325 1 116 26.9675 116 59ZM10.44 59C10.44 85.2667 31.7333 106.56 58 106.56C84.2667 106.56 105.56 85.2667 105.56 59C105.56 32.7333 84.2667 11.44 58 11.44C31.7333 11.44 10.44 32.7333 10.44 59Z" fill="#1F1F1F"/>
<path d="M113.824 64.314C109.802 95.2579 81.4575 117.083 50.5136 113.062C19.5697 109.041 -2.25545 80.6957 1.76579 49.7518C5.78702 18.8079 34.1319 -3.01725 65.0758 1.00399C96.0197 5.02522 117.845 33.3701 113.824 64.314ZM11.851 51.0624C8.55358 76.4364 26.4502 99.6791 51.8242 102.977C77.1982 106.274 100.441 88.3774 103.738 63.0034C107.036 37.6294 89.1392 14.3866 63.7652 11.0892C38.3912 7.79178 15.1484 25.6884 11.851 51.0624Z" fill="#30B94D"/>
</svg>
